<?xml version="1.0" encoding="UTF-8"?>
<svg width="254px" height="285px" viewBox="0 0 254 285" version="1.1" xmlns="http://www.w3.org/2000/svg" xmlns:xlink="http://www.w3.org/1999/xlink">
    <!-- Generator: Sketch 55 (78076) - https://sketchapp.com -->
    <title>logo_Sidechains</title>
    <desc>Created with Sketch.</desc>
    <g id="Page-1" stroke="none" stroke-width="1" fill="none" fill-rule="evenodd">
        <g id="Group-6" transform="translate(-399.000000, -614.000000)" fill="#FFFFFF">
            <g id="logo_Sidechains" transform="translate(399.000000, 614.000000)">
                <path d="M12.3207709,74.9111817 L126.457174,138.78041 C126.532874,138.828072 126.628199,138.828072 126.703898,138.78041 L240.815069,74.9125836 C240.959458,74.821464 240.96086,74.6125898 240.81647,74.5200684 L126.684272,10.6410275 C126.607171,10.5933649 126.509042,10.5933649 126.433343,10.6424293 L12.3179673,74.5214703 C12.1763814,74.6139917 12.1777833,74.821464 12.3207709,74.9111817 Z M122.216609,218.397907 L1.29109455,150.676423 C1.18315288,150.607733 1.1523124,150.464745 1.22100256,150.356804 L6.45126725,142.242954 C6.51995741,142.135013 6.66434692,142.105574 6.77088675,142.174264 L126.433343,209.176604 C126.509042,209.225669 126.607171,209.227071 126.682871,209.176604 L238.831465,146.400812 C241.58608,144.857386 242.968295,141.718666 242.968295,138.571536 L242.968295,121.527966 C242.968295,121.344325 242.76643,121.23358 242.612227,121.331708 L130.875774,183.89302 C127.795931,185.617283 125.362337,185.639712 122.247449,183.898627 L9.24653603,120.664433 C3.42749857,116.970584 0.0280367982,110.649688 0.0280367982,103.756842 L0,73.9761545 C0,69.6668987 2.23172913,68.2958992 5.49521244,66.4664981 L122.072219,1.19543021 C124.933374,-0.401265445 128.209474,-0.402667285 131.08605,1.21645781 L249.443393,67.4800284 C251.881193,68.8454205 253.162474,71.730407 253.162474,74.6322156 C253.162474,77.3714108 251.610638,80.4400383 249.443393,81.6540317 L130.83512,148.06059 C127.800137,149.755414 125.316077,149.755414 122.276888,148.057786 L10.4296889,85.4361958 C10.2740847,85.3394688 10.0736216,85.4502142 10.0736216,85.6324534 L10.1030602,103.756842 C10.1030602,107.157705 11.8161086,110.275397 14.6856749,112.097789 L126.434745,174.68153 C126.510444,174.729192 126.607171,174.729192 126.682871,174.68153 L240.583765,110.892207 C243.534638,109.012339 247.748569,108.924023 250.482157,111.35201 C252.227447,112.903847 253.162474,115.176229 253.162474,117.510293 L253.159671,138.494434 C253.140045,144.98215 249.443393,152.026395 244.234156,154.942222 L130.847737,218.42314 C127.762287,220.150207 125.366543,220.150207 122.216609,218.397907 Z M63.9824219,246.558594 C59.9589643,246.558594 56.7949334,247.984361 54.4902344,250.835938 C52.1855354,253.687514 51.0332031,257.623022 51.0332031,262.642578 C51.0332031,267.896511 52.1415905,271.87108 54.3583984,274.566406 C56.5752064,277.261732 59.7831821,278.609375 63.9824219,278.609375 C65.7988372,278.609375 67.5566321,278.428713 69.2558594,278.067383 C70.9550866,277.706053 72.7226471,277.24219 74.5585938,276.675781 L74.5585938,282.681641 C71.199202,283.951178 67.3906463,284.585938 63.1328125,284.585938 C56.8632499,284.585938 52.0488449,282.686542 48.6894531,278.887695 C45.3300613,275.088848 43.6503906,269.654332 43.6503906,262.583984 C43.6503906,258.130837 44.4658122,254.234392 46.0966797,250.894531 C47.7275472,247.554671 50.0859221,244.996103 53.171875,243.21875 C56.2578279,241.441397 59.8808386,240.552734 64.0410156,240.552734 C68.4160375,240.552734 72.4589658,241.470694 76.1699219,243.306641 L73.6503906,249.136719 C72.2050709,248.453122 70.6767659,247.852542 69.0654297,247.334961 C67.4540935,246.81738 65.7597745,246.558594 63.9824219,246.558594 Z M89.9394531,284 L83.0546875,284 L83.0546875,251.597656 L89.9394531,251.597656 L89.9394531,284 Z M82.6445312,243.013672 C82.6445312,241.783197 82.9814419,240.835941 83.6552734,240.171875 C84.3291049,239.507809 85.2910094,239.175781 86.5410156,239.175781 C87.7519592,239.175781 88.6943326,239.507809 89.3681641,240.171875 C90.0419956,240.835941 90.3789062,241.783197 90.3789062,243.013672 C90.3789062,244.185553 90.0419956,245.108395 89.3681641,245.782227 C88.6943326,246.456058 87.7519592,246.792969 86.5410156,246.792969 C85.2910094,246.792969 84.3291049,246.456058 83.6552734,245.782227 C82.9814419,245.108395 82.6445312,244.185553 82.6445312,243.013672 Z M116.21875,251.011719 C117.605476,251.011719 118.748042,251.109374 119.646484,251.304688 L118.972656,257.720703 C117.996089,257.486327 116.980474,257.369141 115.925781,257.369141 C113.171861,257.369141 110.940438,258.267569 109.231445,260.064453 C107.522452,261.861337 106.667969,264.195298 106.667969,267.066406 L106.667969,284 L99.7832031,284 L99.7832031,251.597656 L105.173828,251.597656 L106.082031,257.310547 L106.433594,257.310547 C107.507818,255.376943 108.909171,253.843756 110.637695,252.710938 C112.36622,251.578119 114.226553,251.011719 116.21875,251.011719 Z M142.087891,251.011719 C143.474616,251.011719 144.617183,251.109374 145.515625,251.304688 L144.841797,257.720703 C143.865229,257.486327 142.849615,257.369141 141.794922,257.369141 C139.041002,257.369141 136.809579,258.267569 135.100586,260.064453 C133.391593,261.861337 132.537109,264.195298 132.537109,267.066406 L132.537109,284 L125.652344,284 L125.652344,251.597656 L131.042969,251.597656 L131.951172,257.310547 L132.302734,257.310547 C133.376958,255.376943 134.778312,253.843756 136.506836,252.710938 C138.23536,251.578119 140.095693,251.011719 142.087891,251.011719 Z M174.373047,284 L173.40625,279.751953 L173.054688,279.751953 C172.097651,281.255867 170.73536,282.437496 168.967773,283.296875 C167.200186,284.156254 165.183605,284.585938 162.917969,284.585938 C158.992168,284.585938 156.06251,283.609385 154.128906,281.65625 C152.195303,279.703115 151.228516,276.74416 151.228516,272.779297 L151.228516,251.597656 L158.171875,251.597656 L158.171875,271.578125 C158.171875,274.058606 158.679682,275.918939 159.695312,277.15918 C160.710943,278.39942 162.302724,279.019531 164.470703,279.019531 C167.361343,279.019531 169.485345,278.155282 170.842773,276.426758 C172.200202,274.698234 172.878906,271.802755 172.878906,267.740234 L172.878906,251.597656 L179.792969,251.597656 L179.792969,284 L174.373047,284 Z M211.375,274.771484 C211.375,277.935563 210.222668,280.362296 207.917969,282.051758 C205.61327,283.741219 202.312521,284.585938 198.015625,284.585938 C193.699197,284.585938 190.232435,283.931647 187.615234,282.623047 L187.615234,276.675781 C191.423847,278.433603 194.968734,279.3125 198.25,279.3125 C202.488302,279.3125 204.607422,278.033216 204.607422,275.474609 C204.607422,274.654293 204.373049,273.970706 203.904297,273.423828 C203.435545,272.87695 202.664068,272.31055 201.589844,271.724609 C200.51562,271.138669 199.021494,270.474613 197.107422,269.732422 C193.376934,268.287102 190.852546,266.841804 189.53418,265.396484 C188.215814,263.951165 187.556641,262.076183 187.556641,259.771484 C187.556641,256.998033 188.674794,254.844734 190.911133,253.311523 C193.147472,251.778313 196.189434,251.011719 200.037109,251.011719 C203.845722,251.011719 207.449202,251.783195 210.847656,253.326172 L208.621094,258.511719 C205.124983,257.066399 202.185559,256.34375 199.802734,256.34375 C196.169904,256.34375 194.353516,257.378896 194.353516,259.449219 C194.353516,260.464849 194.827144,261.324215 195.774414,262.027344 C196.721684,262.730472 198.787093,263.697259 201.970703,264.927734 C204.646498,265.962896 206.589838,266.910152 207.800781,267.769531 C209.011725,268.628911 209.910153,269.620112 210.496094,270.743164 C211.082034,271.866217 211.375,273.208977 211.375,274.771484 Z" id="logo"></path>
            </g>
        </g>
    </g>
</svg>