<?xml version="1.0" encoding="UTF-8"?>
<svg width="516px" height="516px" viewBox="0 0 516 516" version="1.1" xmlns="http://www.w3.org/2000/svg" xmlns:xlink="http://www.w3.org/1999/xlink">
    <!-- Generator: Sketch 55 (78076) - https://sketchapp.com -->
    <title>icon</title>
    <desc>Created with Sketch.</desc>
    <defs>
        <linearGradient x1="66.7236328%" y1="83.2763672%" x2="66.7236328%" y2="16.7236328%" id="linearGradient-1">
            <stop stop-color="#1794C8" offset="0%"></stop>
            <stop stop-color="#1FB8C1" offset="100%"></stop>
        </linearGradient>
        <polygon id="path-2" points="299.3408 0.000303838262 299.3408 259.7944 0.00024 259.7944 0.00024 0.000303838262"></polygon>
    </defs>
    <g id="Page-1" stroke="none" stroke-width="1" fill="none" fill-rule="evenodd">
        <g id="icon" transform="translate(2.000000, 2.000000)">
            <g id="body">
                <g id="path-2-link" fill="#3BB0BA">
                    <circle id="path-2" cx="256" cy="256" r="256"></circle>
                </g>
                <circle id="Oval" stroke="#FFFFFF" stroke-width="13" cx="256" cy="256" r="251"></circle>
            </g>
            <g id="Group" transform="translate(106.000000, 91.000000)">
                <g id="logo">
                    <g id="Fill-1-Clipped">
                        <mask id="mask-3" fill="white">
                            <use xlink:href="#path-2"></use>
                        </mask>
                        <g id="path-4"></g>
                        <path d="M14.56904,88.57712 L149.52424,164.09632 C149.61384,164.15232 149.72744,164.15232 149.81704,164.09632 L284.74344,88.57792 C284.91384,88.47072 284.91384,88.22272 284.74424,88.11472 L149.79224,12.58352 C149.70184,12.52592 149.58584,12.52672 149.49624,12.58512 L14.56584,88.11552 C14.39784,88.22432 14.40024,88.47072 14.56904,88.57712 M144.51144,258.23632 L1.52664,178.16272 C1.39944,178.08032 1.36264,177.91072 1.44424,177.78352 L7.62824,168.19072 C7.70984,168.06352 7.87944,168.02672 8.00664,168.10912 L149.49624,247.33392 C149.58584,247.39152 149.70184,247.39152 149.79224,247.33392 L282.39704,173.10672 C285.65304,171.28032 287.28824,167.57072 287.28824,163.84912 L287.28824,143.69632 C287.28824,143.47952 287.04984,143.34832 286.86664,143.46512 L154.74904,217.43792 C151.10824,219.47632 148.22904,219.50352 144.54664,217.44352 L10.93304,142.67632 C4.05304,138.30832 0.03384,130.83392 0.03384,122.68432 L0.00024,87.47152 C0.00024,82.37472 2.63864,80.75472 6.49864,78.59152 L144.34024,1.41312 C147.72264,-0.47488 151.59624,-0.47488 154.99624,1.43872 L294.94424,79.78992 C297.82744,81.40432 299.34104,84.81472 299.34104,88.24592 C299.34104,91.48592 297.50744,95.11312 294.94424,96.54832 L154.70024,175.06912 C151.11304,177.07392 148.17544,177.07392 144.58264,175.06592 L12.33144,101.02192 C12.14904,100.90672 11.91144,101.03792 11.91144,101.25392 L11.94584,122.68432 C11.94584,126.70432 13.97144,130.39152 17.36504,132.54592 L149.49704,206.54592 C149.58664,206.60352 149.70184,206.60352 149.79144,206.54592 L284.46904,131.12112 C287.95864,128.89792 292.94184,128.79312 296.17304,131.66432 C298.23624,133.49872 299.34104,136.18592 299.34104,138.94592 L299.33864,163.75712 C299.31624,171.42912 294.94424,179.75792 288.78584,183.20672 L154.71544,258.26672 C151.06664,260.30912 148.23464,260.30912 144.51144,258.23632" id="Fill-1" fill="#FFFFFF" fill-rule="nonzero" mask="url(#mask-3)"></path>
                    </g>
                </g>
                <text id="Cirrus" fill="#FFFFFF" font-family="OpenSans-Semibold, Open Sans" font-size="60" font-weight="500">
                    <tspan x="63.1054688" y="312">Cirrus</tspan>
                </text>
            </g>
        </g>
    </g>
</svg>