<?xml version="1.0" encoding="UTF-8"?>
<svg width="49px" height="55px" viewBox="0 0 49 55" version="1.1" xmlns="http://www.w3.org/2000/svg" xmlns:xlink="http://www.w3.org/1999/xlink">
    <!-- Generator: Sketch 55 (78076) - https://sketchapp.com -->
    <title>logo</title>
    <desc>Created with Sketch.</desc>
    <defs>
        <linearGradient x1="100%" y1="50%" x2="0%" y2="50%" id="linearGradient-1">
            <stop stop-color="#1794C8" offset="0%"></stop>
            <stop stop-color="#20BAC0" offset="100%"></stop>
        </linearGradient>
        <linearGradient x1="100%" y1="50%" x2="0%" y2="50%" id="linearGradient-2">
            <stop stop-color="#1794C8" offset="0%"></stop>
            <stop stop-color="#20BAC0" offset="100%"></stop>
        </linearGradient>
    </defs>
    <g id="Page-1" stroke="none" stroke-width="1" fill="none" fill-rule="evenodd">
        <g id="Sidechains---June19---Sidechain-wallet" transform="translate(-611.000000, -7.000000)" fill="url(#linearGradient-2)">
            <g id="logo_Sidechains" transform="translate(611.000000, 7.000000)">
                <path d="M2.36044888,14.3197564 L24.2270306,26.5287721 C24.2415333,26.5378831 24.259796,26.5378831 24.2742987,26.5287721 L46.1360462,14.3200244 C46.1637088,14.3026063 46.1639773,14.2626787 46.1363148,14.2449926 L24.2705387,2.03410117 C24.2557675,2.02499016 24.2369677,2.02499016 24.222465,2.03436914 L2.35991174,14.2452606 C2.33278632,14.2629466 2.33305488,14.3026063 2.36044888,14.3197564 Z M23.4146108,41.7481712 L0.247351623,28.8027719 C0.226671846,28.7896414 0.220763338,28.7623083 0.233923196,28.7416746 L1.23595241,27.1906599 C1.24911227,27.1700261 1.27677483,27.1643987 1.29718604,27.1775293 L24.222465,39.9854596 C24.2369677,39.9948385 24.2557675,39.9951065 24.2702702,39.9854596 L45.7560217,27.9854611 C46.2837589,27.6904253 46.5485675,27.0904388 46.5485675,26.4888444 L46.5485675,23.230856 C46.5485675,23.1957518 46.5098936,23.1745821 46.4803511,23.1933401 L25.0735587,35.152339 C24.4835136,35.481943 24.0172786,35.4862306 23.4205193,35.1534109 L1.77147807,23.065786 C0.656650074,22.3596831 0.00537137075,21.1514029 0.00537137075,19.8337907 L0,14.1410199 C0,13.3172778 0.427561112,13.0552024 1.05278867,12.7055006 L23.3869482,0.228514209 C23.9350966,-0.0767044826 24.5627413,-0.0769724534 25.1138439,0.23253377 L47.7890855,12.8992435 C48.2561262,13.160247 48.5015979,13.7117308 48.5015979,14.2664303 C48.5015979,14.7900451 48.2042925,15.3766331 47.7890855,15.6086958 L25.0657702,28.3027385 C24.4843193,28.6267151 24.0084158,28.6267151 23.4261592,28.3022025 L1.99814992,16.3316809 C1.96833881,16.3131909 1.92993351,16.3343606 1.92993351,16.3691968 L1.93557345,19.8337907 C1.93557345,20.4838878 2.2637642,21.0798547 2.813524,21.4282167 L24.2227335,33.3915032 C24.2372362,33.4006142 24.2557675,33.4006142 24.2702702,33.3915032 L46.0917324,21.1977619 C46.6570692,20.8384131 47.4643862,20.8215309 47.9880948,21.2856563 C48.3224627,21.5822999 48.5015979,22.0166805 48.5015979,22.4628518 L48.5010607,26.474106 C48.4973008,27.7142747 47.7890855,29.0608278 46.7910849,29.6182069 L25.0681873,41.7529947 C24.4770679,42.0831346 24.0180843,42.0831346 23.4146108,41.7481712 Z M7.6953125,44.015625 C6.62239047,44.015625 5.77864891,44.3958295 5.1640625,45.15625 C4.54947609,45.9166705 4.2421875,46.9661391 4.2421875,48.3046875 C4.2421875,49.7057362 4.53775746,50.7656214 5.12890625,51.484375 C5.72005504,52.2031286 6.57551523,52.5625 7.6953125,52.5625 C8.17968992,52.5625 8.64843523,52.5143234 9.1015625,52.4179688 C9.55468977,52.3216141 10.0260392,52.1979174 10.515625,52.046875 L10.515625,53.6484375 C9.61978719,53.9869809 8.60417234,54.15625 7.46875,54.15625 C5.79686664,54.15625 4.51302531,53.6497446 3.6171875,52.6367188 C2.72134969,51.6236929 2.2734375,50.1744886 2.2734375,48.2890625 C2.2734375,47.1015566 2.49088324,46.0625045 2.92578125,45.171875 C3.36067926,44.2812455 3.98957922,43.5989607 4.8125,43.125 C5.63542078,42.6510393 6.60155695,42.4140625 7.7109375,42.4140625 C8.87761,42.4140625 9.95572422,42.6588517 10.9453125,43.1484375 L10.2734375,44.703125 C9.88801891,44.5208324 9.4804709,44.3606778 9.05078125,44.2226562 C8.6210916,44.0846347 8.1692732,44.015625 7.6953125,44.015625 Z M14.6171875,54 L12.78125,54 L12.78125,45.359375 L14.6171875,45.359375 L14.6171875,54 Z M12.671875,43.0703125 C12.671875,42.7421859 12.7617179,42.4895842 12.9414062,42.3125 C13.1210946,42.1354158 13.3776025,42.046875 13.7109375,42.046875 C14.0338558,42.046875 14.2851554,42.1354158 14.4648438,42.3125 C14.6445321,42.4895842 14.734375,42.7421859 14.734375,43.0703125 C14.734375,43.3828141 14.6445321,43.6289054 14.4648438,43.8085938 C14.2851554,43.9882821 14.0338558,44.078125 13.7109375,44.078125 C13.3776025,44.078125 13.1210946,43.9882821 12.9414062,43.8085938 C12.7617179,43.6289054 12.671875,43.3828141 12.671875,43.0703125 Z M21.625,45.203125 C21.9947935,45.203125 22.299478,45.2291664 22.5390625,45.28125 L22.359375,46.9921875 C22.098957,46.9296872 21.8281264,46.8984375 21.546875,46.8984375 C20.8124963,46.8984375 20.2174502,47.1380184 19.7617188,47.6171875 C19.3059873,48.0963566 19.078125,48.7187462 19.078125,49.484375 L19.078125,54 L17.2421875,54 L17.2421875,45.359375 L18.6796875,45.359375 L18.921875,46.8828125 L19.015625,46.8828125 C19.3020848,46.3671849 19.6757789,45.9583348 20.1367188,45.65625 C20.5976586,45.3541652 21.0937473,45.203125 21.625,45.203125 Z M28.5234375,45.203125 C28.893231,45.203125 29.1979155,45.2291664 29.4375,45.28125 L29.2578125,46.9921875 C28.9973945,46.9296872 28.7265639,46.8984375 28.4453125,46.8984375 C27.7109338,46.8984375 27.1158877,47.1380184 26.6601562,47.6171875 C26.2044248,48.0963566 25.9765625,48.7187462 25.9765625,49.484375 L25.9765625,54 L24.140625,54 L24.140625,45.359375 L25.578125,45.359375 L25.8203125,46.8828125 L25.9140625,46.8828125 C26.2005223,46.3671849 26.5742164,45.9583348 27.0351562,45.65625 C27.4960961,45.3541652 27.9921848,45.203125 28.5234375,45.203125 Z M37.1328125,54 L36.875,52.8671875 L36.78125,52.8671875 C36.5260404,53.2682312 36.1627628,53.5833322 35.6914062,53.8125 C35.2200497,54.0416678 34.6822947,54.15625 34.078125,54.15625 C33.0312448,54.15625 32.2500026,53.8958359 31.734375,53.375 C31.2187474,52.8541641 30.9609375,52.0651095 30.9609375,51.0078125 L30.9609375,45.359375 L32.8125,45.359375 L32.8125,50.6875 C32.8125,51.3489616 32.9479153,51.8450504 33.21875,52.1757812 C33.4895847,52.5065121 33.9140596,52.671875 34.4921875,52.671875 C35.2630247,52.671875 35.8294253,52.4414086 36.1914062,51.9804688 C36.5533872,51.5195289 36.734375,50.7474012 36.734375,49.6640625 L36.734375,45.359375 L38.578125,45.359375 L38.578125,54 L37.1328125,54 Z M47,51.5390625 C47,52.3828167 46.6927114,53.0299457 46.078125,53.4804688 C45.4635386,53.9309918 44.5833391,54.15625 43.4375,54.15625 C42.2864526,54.15625 41.3619827,53.9817726 40.6640625,53.6328125 L40.6640625,52.046875 C41.6796926,52.5156273 42.6249956,52.75 43.5,52.75 C44.630214,52.75 45.1953125,52.4088576 45.1953125,51.7265625 C45.1953125,51.5078114 45.1328131,51.3255216 45.0078125,51.1796875 C44.8828119,51.0338534 44.6770848,50.8828133 44.390625,50.7265625 C44.1041652,50.5703117 43.7057317,50.3932302 43.1953125,50.1953125 C42.2005159,49.8098939 41.5273455,49.4244811 41.1757812,49.0390625 C40.824217,48.6536439 40.6484375,48.1536489 40.6484375,47.5390625 C40.6484375,46.7994755 40.9466116,46.2252625 41.5429688,45.8164062 C42.1393259,45.40755 42.9505157,45.203125 43.9765625,45.203125 C44.9921926,45.203125 45.9531205,45.4088521 46.859375,45.8203125 L46.265625,47.203125 C45.3333287,46.8177064 44.5494823,46.625 43.9140625,46.625 C42.9453077,46.625 42.4609375,46.9010389 42.4609375,47.453125 C42.4609375,47.7239597 42.5872383,47.9531241 42.8398438,48.140625 C43.0924492,48.3281259 43.6432249,48.5859359 44.4921875,48.9140625 C45.2057327,49.1901055 45.7239567,49.4427072 46.046875,49.671875 C46.3697933,49.9010428 46.6093742,50.1653631 46.765625,50.4648438 C46.9218758,50.7643244 47,51.1223938 47,51.5390625 Z" id="logo"></path>
            </g>
        </g>
    </g>
</svg>