<?xml version="1.0" encoding="UTF-8"?>
<svg width="285px" height="262px" viewBox="0 0 285 262" version="1.1" xmlns="http://www.w3.org/2000/svg" xmlns:xlink="http://www.w3.org/1999/xlink">
    <!-- Generator: Sketch 47.1 (45422) - http://www.bohemiancoding.com/sketch -->
    <title>logo_Sidechains</title>
    <desc>Created with Sketch.</desc>
    <defs></defs>
    <g id="Page-1" stroke="none" stroke-width="1" fill="none" fill-rule="evenodd">
        <g id="Group-6" transform="translate(-399.000000, -614.000000)">
            <g id="logo_Sidechains" transform="translate(399.000000, 614.000000)">
                <path d="M12.3207709,74.9111817 L126.457174,138.78041 C126.532874,138.828072 126.628199,138.828072 126.703898,138.78041 L240.815069,74.9125836 C240.959458,74.821464 240.96086,74.6125898 240.81647,74.5200684 L126.684272,10.6410275 C126.607171,10.5933649 126.509042,10.5933649 126.433343,10.6424293 L12.3179673,74.5214703 C12.1763814,74.6139917 12.1777833,74.821464 12.3207709,74.9111817 Z M122.216609,218.397907 L1.29109455,150.676423 C1.18315288,150.607733 1.1523124,150.464745 1.22100256,150.356804 L6.45126725,142.242954 C6.51995741,142.135013 6.66434692,142.105574 6.77088675,142.174264 L126.433343,209.176604 C126.509042,209.225669 126.607171,209.227071 126.682871,209.176604 L238.831465,146.400812 C241.58608,144.857386 242.968295,141.718666 242.968295,138.571536 L242.968295,121.527966 C242.968295,121.344325 242.76643,121.23358 242.612227,121.331708 L130.875774,183.89302 C127.795931,185.617283 125.362337,185.639712 122.247449,183.898627 L9.24653603,120.664433 C3.42749857,116.970584 0.0280367982,110.649688 0.0280367982,103.756842 L0,73.9761545 C0,69.6668987 2.23172913,68.2958992 5.49521244,66.4664981 L122.072219,1.19543021 C124.933374,-0.401265445 128.209474,-0.402667285 131.08605,1.21645781 L249.443393,67.4800284 C251.881193,68.8454205 253.162474,71.730407 253.162474,74.6322156 C253.162474,77.3714108 251.610638,80.4400383 249.443393,81.6540317 L130.83512,148.06059 C127.800137,149.755414 125.316077,149.755414 122.276888,148.057786 L10.4296889,85.4361958 C10.2740847,85.3394688 10.0736216,85.4502142 10.0736216,85.6324534 L10.1030602,103.756842 C10.1030602,107.157705 11.8161086,110.275397 14.6856749,112.097789 L126.434745,174.68153 C126.510444,174.729192 126.607171,174.729192 126.682871,174.68153 L240.583765,110.892207 C243.534638,109.012339 247.748569,108.924023 250.482157,111.35201 C252.227447,112.903847 253.162474,115.176229 253.162474,117.510293 L253.159671,138.494434 C253.140045,144.98215 249.443393,152.026395 244.234156,154.942222 L130.847737,218.42314 C127.762287,220.150207 125.366543,220.150207 122.216609,218.397907 L122.216609,218.397907 Z" id="logo" fill="#FFFFFF"></path>
                <g id="icon" transform="translate(200.000000, 177.000000)">
                    <path d="M42.5022692,84.3695119 C19.4166592,84.3695119 0.632484515,65.5880892 0.63066918,42.5 C0.63066918,19.4128184 19.4130285,0.630488121 42.5004538,0.630488121 C65.5869715,0.630488121 84.3693308,19.4128184 84.3693308,42.5 C84.3693308,65.5880892 65.5878792,84.3695119 42.5022692,84.3695119 Z M42.5022692,84.3695119 C19.4166592,84.3695119 0.632484515,65.5880892 0.63066918,42.5 C0.63066918,19.4128184 19.4130285,0.630488121 42.5004538,0.630488121 C65.5869715,0.630488121 84.3693308,19.4128184 84.3693308,42.5 C84.3693308,65.5880892 65.5878792,84.3695119 42.5022692,84.3695119 Z" id="Shape" fill="#FFFFFF" fill-rule="nonzero"></path>
                    <g id="Group-6" transform="translate(44.000000, 44.500000) rotate(-165.000000) translate(-44.000000, -44.500000) translate(13.000000, 28.000000)" fill="#5757D5">
                        <path d="M37.9456031,16.7334772 C38.1966925,17.7916155 37.5556488,18.8562443 36.4946563,19.1431721 C35.4336638,19.4300998 34.3327993,18.836541 34.0029451,17.7997033 C33.1612721,14.7792399 30.762098,12.4254972 27.6988592,11.6149932 L15.6480642,8.42290583 C12.5641578,7.60627443 9.27385867,8.47690995 7.01659066,10.7068524 C4.75932264,12.9367949 3.87801845,16.1872631 4.70465685,19.233837 C5.53129524,22.2804109 7.94029018,24.6602435 11.0241966,25.4768749 L23.0754905,28.6671222 C26.1393801,29.4703724 29.4046179,28.6180767 31.6664319,26.4247059 C32.4793629,25.7043421 33.7219038,25.7421365 34.4887581,26.5105526 C35.2556123,27.2789688 35.2762018,28.5068775 34.5355254,29.299643 C31.2394248,32.4966002 26.4802917,33.7383633 22.0152636,32.5664565 L9.96396965,29.3762092 C5.3672659,28.276766 1.73430041,24.8026186 0.472513666,20.2996799 C-0.789273083,15.7967411 0.518354886,10.9724559 3.88881182,7.69579174 C7.25926876,4.41912754 12.1630311,3.20487237 16.7003413,4.5234386 L28.7504543,7.71435931 C32.0935181,8.58810493 34.9439634,10.7469573 36.6661857,13.709526 C37.2220713,14.6592029 37.6520688,15.6755181 37.9456031,16.7334772 Z" id="Path"></path>
                        <path d="M25.3338143,19.290474 C24.7779287,18.3407971 24.3479312,17.3244819 24.0543969,16.2665228 C23.8033075,15.2083845 24.4443512,14.1437557 25.5053437,13.8568279 C26.5663362,13.5699002 27.6672007,14.163459 27.9970549,15.2002967 C28.8387279,18.2207601 31.237902,20.5745028 34.3011408,21.3850068 L46.3519358,24.5770942 C49.4358422,25.3937256 52.7261413,24.52309 54.9834093,22.2931476 C57.2406774,20.0632051 58.1219815,16.8127369 57.2953432,13.766163 C56.4687048,10.7195891 54.0597098,8.33975653 50.9758034,7.52312512 L38.9245095,4.33287782 C35.8606199,3.52962761 32.5953821,4.38192331 30.3335681,6.57529409 C29.5206371,7.29565785 28.2780962,7.25786347 27.5112419,6.48944736 C26.7443877,5.72103125 26.7237982,4.49312247 27.4644746,3.70035704 C30.7605752,0.503399847 35.5197083,-0.738363327 39.9847364,0.433543546 L52.0360304,3.62379084 C56.6327341,4.72323396 60.2656996,8.19738142 61.5274863,12.7003201 C62.7892731,17.2032589 61.4816451,22.0275441 58.1111882,25.3042083 C54.7407312,28.5808725 49.8369689,29.7951276 45.2996587,28.4765614 L33.2495457,25.2856407 C29.9064819,24.4118951 27.0560366,22.2530427 25.3338143,19.290474 Z" id="Path"></path>
                    </g>
                </g>
            </g>
        </g>
    </g>
</svg>