<?xml version="1.0" encoding="UTF-8"?>
<svg width="558px" height="325px" viewBox="0 0 558 325" version="1.1" xmlns="http://www.w3.org/2000/svg" xmlns:xlink="http://www.w3.org/1999/xlink">
    <!-- Generator: Sketch 47.1 (45422) - http://www.bohemiancoding.com/sketch -->
    <title>Artboard</title>
    <desc>Created with Sketch.</desc>
    <defs>
        <linearGradient x1="50%" y1="34.2829973%" x2="0%" y2="34.2829973%" id="linearGradient-1">
            <stop stop-color="#1794C8" offset="0%"></stop>
            <stop stop-color="#1FB8C1" offset="100%"></stop>
        </linearGradient>
    </defs>
    <g id="Page-1" stroke="none" stroke-width="1" fill="none" fill-rule="evenodd">
        <g id="Artboard">
            <path d="M18.211,110.72102 L186.905,205.12002 C187.017,205.19002 187.159,205.19002 187.271,205.12002 L355.929,110.72202 C356.142,110.58802 356.142,110.27802 355.93,110.14302 L187.24,15.7290202 C187.127,15.6570202 186.982,15.6580202 186.87,15.7310202 L18.207,110.14402 C17.997,110.28002 18,110.58802 18.211,110.72102 M180.639,322.79502 L1.908,222.70302 C1.749,222.60002 1.703,222.38802 1.805,222.22902 L9.535,210.23802 C9.637,210.07902 9.849,210.03302 10.008,210.13602 L186.87,309.16702 C186.982,309.23902 187.127,309.23902 187.24,309.16702 L352.996,216.38302 C357.066,214.10002 359.11,209.46302 359.11,204.81102 L359.11,179.62002 C359.11,179.34902 358.812,179.18502 358.583,179.33102 L193.436,271.79702 C188.885,274.34502 185.286,274.37902 180.683,271.80402 L13.666,178.34502 C5.066,172.88502 0.042,163.54202 0.042,153.35502 L0,109.33902 C0,102.96802 3.298,100.94302 8.123,98.2390202 L180.425,1.7660202 C184.653,-0.593979798 189.495,-0.593979798 193.745,1.7980202 L368.68,99.7370202 C372.284,101.75502 374.176,106.01802 374.176,110.30702 C374.176,114.35702 371.884,118.89102 368.68,120.68502 L193.375,218.83602 C188.891,221.34202 185.219,221.34202 180.728,218.83202 L15.414,126.27702 C15.186,126.13302 14.889,126.29702 14.889,126.56702 L14.932,153.35502 C14.932,158.38002 17.464,162.98902 21.706,165.68202 L186.871,258.18202 C186.983,258.25402 187.127,258.25402 187.239,258.18202 L355.586,163.90102 C359.948,161.12202 366.177,160.99102 370.216,164.58002 C372.795,166.87302 374.176,170.23202 374.176,173.68202 L374.173,204.69602 C374.145,214.28602 368.68,224.69702 360.982,229.00802 L193.394,322.83302 C188.833,325.38602 185.293,325.38602 180.639,322.79502" id="Fill-1" fill="url(#linearGradient-1)" fill-rule="nonzero"></path>
            <text id="SC" font-family="Arial-BoldMT, Arial" font-size="100" font-weight="bold" line-spacing="100" fill="#1794C8">
                <tspan x="419" y="207">SC</tspan>
            </text>
        </g>
    </g>
</svg>