<?xml version="1.0" encoding="UTF-8"?>
<svg width="510px" height="325px" viewBox="0 0 510 325" version="1.1" xmlns="http://www.w3.org/2000/svg" xmlns:xlink="http://www.w3.org/1999/xlink">
    <!-- Generator: Sketch 47.1 (45422) - http://www.bohemiancoding.com/sketch -->
    <title>Artboard</title>
    <desc>Created with Sketch.</desc>
    <defs>
        <polygon id="path-1" points="374.176 0.000379797827 374.176 324.743 0.0003 324.743 0.0003 0.000379797827"></polygon>
        <linearGradient x1="78.2395467%" y1="34.2829973%" x2="0%" y2="34.2829973%" id="linearGradient-3">
            <stop stop-color="#5757D5" offset="0%"></stop>
            <stop stop-color="#9393FF" offset="100%"></stop>
        </linearGradient>
    </defs>
    <g id="Page-1" stroke="none" stroke-width="1" fill="none" fill-rule="evenodd">
        <g id="Artboard">
            <g id="logo">
                <mask id="mask-2" fill="white">
                    <use xlink:href="#path-1"></use>
                </mask>
                <g id="path-1"></g>
                <path d="M18.2113,110.7214 L186.9053,205.1204 C187.0173,205.1904 187.1593,205.1904 187.2713,205.1204 L355.9293,110.7224 C356.1423,110.5884 356.1423,110.2784 355.9303,110.1434 L187.2403,15.7294 C187.1273,15.6574 186.9823,15.6584 186.8703,15.7314 L18.2073,110.1444 C17.9973,110.2804 18.0003,110.5884 18.2113,110.7214 M180.6393,322.7954 L1.9083,222.7034 C1.7493,222.6004 1.7033,222.3884 1.8053,222.2294 L9.5353,210.2384 C9.6373,210.0794 9.8493,210.0334 10.0083,210.1364 L186.8703,309.1674 C186.9823,309.2394 187.1273,309.2394 187.2403,309.1674 L352.9963,216.3834 C357.0663,214.1004 359.1103,209.4634 359.1103,204.8114 L359.1103,179.6204 C359.1103,179.3494 358.8123,179.1854 358.5833,179.3314 L193.4363,271.7974 C188.8853,274.3454 185.2863,274.3794 180.6833,271.8044 L13.6663,178.3454 C5.0663,172.8854 0.0423,163.5424 0.0423,153.3554 L0.0003,109.3394 C0.0003,102.9684 3.2983,100.9434 8.1233,98.2394 L180.4253,1.7664 C184.6533,-0.5936 189.4953,-0.5936 193.7453,1.7984 L368.6803,99.7374 C372.2843,101.7554 374.1763,106.0184 374.1763,110.3074 C374.1763,114.3574 371.8843,118.8914 368.6803,120.6854 L193.3753,218.8364 C188.8913,221.3424 185.2193,221.3424 180.7283,218.8324 L15.4143,126.2774 C15.1863,126.1334 14.8893,126.2974 14.8893,126.5674 L14.9323,153.3554 C14.9323,158.3804 17.4643,162.9894 21.7063,165.6824 L186.8713,258.1824 C186.9833,258.2544 187.1273,258.2544 187.2393,258.1824 L355.5863,163.9014 C359.9483,161.1224 366.1773,160.9914 370.2163,164.5804 C372.7953,166.8734 374.1763,170.2324 374.1763,173.6824 L374.1733,204.6964 C374.1453,214.2864 368.6803,224.6974 360.9823,229.0084 L193.3943,322.8334 C188.8333,325.3864 185.2933,325.3864 180.6393,322.7954" id="Fill-1" fill="url(#linearGradient-3)" fill-rule="nonzero" mask="url(#mask-2)"></path>
            </g>
            <g id="icon" transform="translate(375.000000, 190.000000)">
                <path d="M67.5036583,135 C30.2859946,135 0.00292660719,104.7215 -5.25801624e-13,67.5 C-5.25801624e-13,30.2799636 30.2801413,4.26325641e-14 67.5007317,4.26325641e-14 C104.719859,4.26325641e-14 135,30.2799636 135,67.5 C135,104.7215 104.721322,135 67.5036583,135 Z M67.5036583,135 C30.2859946,135 0.0029266072,104.7215 3.11217718e-12,67.5 C3.11217718e-12,30.2799636 30.2801413,9.52127266e-13 67.5007317,9.52127266e-13 C104.719859,9.52127266e-13 135,30.2799636 135,67.5 C135,104.7215 104.721322,135 67.5036583,135 Z" id="Shape" fill="#5757D5" fill-rule="nonzero"></path>
                <g id="Group-6" transform="translate(70.000000, 70.500000) rotate(-165.000000) translate(-70.000000, -70.500000) translate(20.000000, 44.000000)" fill="#FFFFFF">
                    <path d="M61.2025856,26.8749785 C61.6075686,28.5744128 60.5736271,30.2842712 58.8623489,30.7450945 C57.1510707,31.2059178 55.3754827,30.2526264 54.8434598,28.5874022 C53.4859227,23.736355 49.6162871,19.9561015 44.6755794,18.6543831 L25.2388133,13.5276972 C20.2647707,12.2161377 14.9578366,13.6144311 11.3170817,17.1958539 C7.67632684,20.7772767 6.25486847,25.9977255 7.5881562,30.8907079 C8.92144394,35.7836902 12.8069196,39.6058456 17.7809622,40.9174051 L37.2185331,46.0411356 C42.1602904,47.3312041 47.4268031,45.9623656 51.0748902,42.4396792 C52.3860691,41.2827313 54.3901675,41.3434314 55.6270291,42.5775542 C56.8638908,43.8116771 56.8970997,45.783773 55.7024603,47.0570023 C50.386169,52.1915093 42.7101479,54.1858563 35.5084896,52.3037028 L16.0709188,47.1799723 C8.65688049,45.4142 2.79725873,39.8345086 0.762118816,32.6025161 C-1.2730211,25.3705236 0.836056267,17.6224292 6.27227713,12.3599079 C11.708498,7.09738665 19.6177921,5.14721926 26.9360343,7.26491654 L46.3717006,12.3897286 C51.7637388,13.793017 56.3612313,17.2602647 59.1390091,22.0183297 C60.0355989,23.5435683 60.7291433,25.1758321 61.2025856,26.8749785 Z" id="Path"></path>
                    <path d="M40.8609909,30.9816703 C39.9644011,29.4564317 39.2708567,27.8241679 38.7974144,26.1250215 C38.3924314,24.4255872 39.4263729,22.7157288 41.1376511,22.2549055 C42.8489293,21.7940822 44.6245173,22.7473736 45.1565402,24.4125978 C46.5140773,29.263645 50.3837129,33.0438985 55.3244206,34.3456169 L74.7611867,39.4723028 C79.7352293,40.7838623 85.0421634,39.3855689 88.6829183,35.8041461 C92.3236732,32.2227233 93.7451315,27.0022745 92.4118438,22.1092921 C91.0785561,17.2163098 87.1930804,13.3941544 82.2190378,12.0825949 L62.7814669,6.95886438 C57.8397096,5.66879586 52.5731969,7.03763441 48.9251098,10.5603208 C47.6139309,11.7172687 45.6098325,11.6565686 44.3729709,10.4224458 C43.1361092,9.18832292 43.1029003,7.216227 44.2975397,5.94299767 C49.613831,0.808490663 57.2898521,-1.18585625 64.4915104,0.696297211 L83.9290812,5.82002771 C91.3431195,7.58579999 97.2027413,13.1654914 99.2378812,20.3974839 C101.273021,27.6294764 99.1639437,35.3775708 93.7277229,40.6400921 C88.291502,45.9026134 80.3822079,47.8527807 73.0639657,45.7350835 L53.6282994,40.6102714 C48.2362612,39.206983 43.6387687,35.7397353 40.8609909,30.9816703 Z" id="Path"></path>
                </g>
            </g>
        </g>
    </g>
</svg>