<?xml version="1.0" encoding="UTF-8"?>
<svg width="120px" height="120px" viewBox="0 0 120 120" version="1.1" xmlns="http://www.w3.org/2000/svg" xmlns:xlink="http://www.w3.org/1999/xlink">
    <!-- Generator: Sketch 47.1 (45422) - http://www.bohemiancoding.com/sketch -->
    <title>stratis</title>
    <desc>Created with Sketch.</desc>
    <defs></defs>
    <g id="Page-1" stroke="none" stroke-width="1" fill="none" fill-rule="evenodd">
        <g id="stratis">
            <rect id="Rectangle-3-Copy" fill="#EAF7FF" x="0" y="0" width="120" height="120" rx="60"></rect>
            <path d="M71.2417665,59.5353535 L88.0952381,59.5353535 L77.2120392,42 L42.8831989,42 L32,59.5353535 L48.8534716,59.5353535 L48.8534716,64.5506823 C48.8534716,67.3147974 51.081997,69.5555556 53.8221599,69.5555556 L66.2730782,69.5555556 C69.0172091,69.5555556 71.2417665,67.3053674 71.2417665,64.5506823 L71.2417665,59.5353535 L71.2417665,59.5353535 Z M74.1890959,62 L89.0793651,62 L89.0793651,79.7142857 L32,79.7142857 L32,62 L46.8902692,62 L46.8902692,65.7959184 C46.8902692,69.2899648 49.6580562,72.122449 53.0847956,72.122449 L67.9945695,72.122449 C71.4157121,72.122449 74.1890959,69.3143245 74.1890959,65.7959184 L74.1890959,62 L74.1890959,62 L74.1890959,62 Z M29,60.1587302 L29,58.914099 L41.4,39 L78.6,39 L91,58.914099 L91,60.1587302 L91,81.3174603 L29,81.3174603 L29,60.1587302 Z M55.375,60 L59.5,55.875 L63.625,60 L65,58.625 L60.875,54.5 L65,50.375 L63.625,49 L59.5,53.125 L55.375,49 L54,50.375 L58.125,54.5 L54,58.625 L55.375,60 Z" id="inbox" fill="#2FBAFF" fill-rule="nonzero"></path>
            <g id="Group-2" transform="translate(47.000000, 56.000000)"></g>
        </g>
    </g>
</svg>
