<?xml version="1.0" encoding="UTF-8" standalone="no"?>
<svg width="759px" height="759px" viewBox="0 0 759 759" version="1.1" xmlns="http://www.w3.org/2000/svg" xmlns:xlink="http://www.w3.org/1999/xlink">
    <!-- Generator: Sketch 47.1 (45422) - http://www.bohemiancoding.com/sketch -->
    <title>Group 2</title>
    <desc>Created with Sketch.</desc>
    <defs>
        <rect id="path-1" x="0" y="0" width="679" height="679" rx="100"></rect>
        <filter x="-9.9%" y="-8.0%" width="119.7%" height="119.7%" filterUnits="objectBoundingBox" id="filter-2">
            <feMorphology radius="0.5" operator="dilate" in="SourceAlpha" result="shadowSpreadOuter1"></feMorphology>
            <feOffset dx="0" dy="13" in="shadowSpreadOuter1" result="shadowOffsetOuter1"></feOffset>
            <feGaussianBlur stdDeviation="20" in="shadowOffsetOuter1" result="shadowBlurOuter1"></feGaussianBlur>
            <feComposite in="shadowBlurOuter1" in2="SourceAlpha" operator="out" result="shadowBlurOuter1"></feComposite>
            <feColorMatrix values="0 0 0 0 0   0 0 0 0 0   0 0 0 0 0  0 0 0 0.0948822464 0" type="matrix" in="shadowBlurOuter1"></feColorMatrix>
        </filter>
        <linearGradient x1="50%" y1="0%" x2="50%" y2="100%" id="linearGradient-3">
            <stop stop-color="#DAEEFF" offset="0%"></stop>
            <stop stop-color="#3477DC" offset="100%"></stop>
        </linearGradient>
        <linearGradient x1="50%" y1="0%" x2="50%" y2="96.5900032%" id="linearGradient-4">
            <stop stop-color="#30A0FF" offset="0%"></stop>
            <stop stop-color="#005EEB" offset="100%"></stop>
        </linearGradient>
        <linearGradient x1="50%" y1="0%" x2="50%" y2="100%" id="linearGradient-5">
            <stop stop-color="#9ACCFD" offset="0%"></stop>
            <stop stop-color="#397BE2" offset="100%"></stop>
        </linearGradient>
    </defs>
    <g id="Page-1" stroke="none" stroke-width="1" fill="none" fill-rule="evenodd">
        <g id="Artboard" transform="translate(-273.000000, -241.000000)">
            <g id="Group-2" transform="translate(313.000000, 268.000000)">
                <g id="Rectangle">
                    <use fill="black" fill-opacity="1" filter="url(#filter-2)" xlink:href="#path-1"></use>
                    <use stroke="#F0F0F0" stroke-width="1" fill="#FFFFFF" fill-rule="evenodd" xlink:href="#path-1"></use>
                </g>
                <g id="Group" transform="translate(339.632378, 339.143630) rotate(-14.000000) translate(-339.632378, -339.143630) translate(112.632378, 60.643630)" fill-rule="nonzero">
                    <path d="M367.74302,203.006675 C366.36777,199.138257 362.956852,196.344194 358.897885,195.763128 L234.737017,177.923158 L291.696127,50.8316089 C293.217313,47.4107359 292.915549,43.4421772 290.868751,40.2908201 C288.833084,37.1493535 285.333121,35.2491432 281.588285,35.2491432 L108.194197,35.2491432 C102.234366,35.2491432 97.3480225,39.9656702 97.1365407,45.9123268 L89.1521735,271.771537 C88.9505855,277.415297 93.0429447,282.301199 98.6342279,283.104801 L184.955923,295.523546 L69.4608639,503.945824 C66.7548857,508.852743 68.1301361,514.989791 72.6701937,518.275906 C74.6267099,519.685301 76.8849898,520.355382 79.1432696,520.355382 C82.1398807,520.355382 85.1142307,519.137615 87.2834655,516.777497 L365.472373,214.196527 C368.245135,211.177455 369.117034,206.873856 367.74302,203.006675 Z" id="Shape" fill="url(#linearGradient-3)" opacity="0.301856884" transform="translate(218.231780, 277.802262) rotate(-18.000000) translate(-218.231780, -277.802262) "></path>
                    <path d="M453.351423,232.745367 C451.959246,228.829337 448.506347,226.000885 444.397422,225.412667 L318.708383,207.353123 L376.368546,78.6973314 C377.908454,75.2343544 377.602976,71.2169507 375.530986,68.0268067 C373.470264,64.8466749 369.927224,62.9230769 366.136296,62.9230769 L190.608074,62.9230769 C184.57489,62.9230769 179.628406,67.6976549 179.414321,73.7175029 L171.331682,302.356587 C171.127613,308.06981 175.270341,313.015848 180.930442,313.829341 L268.314583,326.400936 L151.398012,537.388473 C148.658729,542.355787 150.050906,548.56837 154.646842,551.89493 C156.627439,553.321672 158.913514,554 161.199589,554 C164.233082,554 167.24404,552.767245 169.439974,550.378079 L451.052829,244.072944 C453.859718,241.016713 454.742348,236.660146 453.351423,232.745367 Z" id="Shape" fill="url(#linearGradient-4)"></path>
                    <path d="M380.041815,250.532293 C378.803983,247.050417 375.733893,244.535544 372.080508,244.012539 L260.326102,227.955183 L311.593717,113.562937 C312.962901,110.483886 312.691291,106.911875 310.849014,104.07541 C309.016755,101.247846 305.866518,99.5375097 302.495875,99.5375097 L146.427754,99.5375097 C141.063444,99.5375097 136.665356,103.78275 136.475006,109.135202 L129.288456,312.426 C129.107012,317.505821 132.790452,321.903512 137.823041,322.626816 L215.519258,333.804649 L111.564751,521.400857 C109.129161,525.817464 110.366993,531.341283 114.453397,534.299042 C116.214413,535.567606 118.24704,536.170731 120.279667,536.170731 C122.976849,536.170731 125.653995,535.074646 127.606474,532.950357 L377.998057,260.604027 C380.493757,257.886629 381.278534,254.013056 380.041815,250.532293 Z" id="Shape" fill="url(#linearGradient-5)" opacity="0.852072011" transform="translate(245.470109, 317.854120) rotate(-10.000000) translate(-245.470109, -317.854120) "></path>
                </g>
            </g>
        </g>
    </g>
</svg>